<svg xmlns="http://www.w3.org/2000/svg" version="1.1" xmlns:xlink="http://www.w3.org/1999/xlink" xmlns:svgjs="http://svgjs.com/svgjs" width="1440" height="560" preserveAspectRatio="none" viewBox="0 0 1440 560">
    <g mask="url(&quot;#SvgjsMask1000&quot;)" fill="none">
        <rect width="1440" height="560" x="0" y="0" fill="#0e2a47"></rect>
        <path d="M-86.65 383.61L-86.65 383.61" stroke="#132e65" stroke-width="1.5"></path>
        <path d="M-86.65 383.61L62.49 491.13" stroke="#132e65" stroke-width="1.5"></path>
        <path d="M-86.65 383.61L106.15 400.82" stroke="#132e65" stroke-width="1.5"></path>
        <path d="M-86.65 383.61L-107.07 643.2" stroke="#132e65" stroke-width="1.5"></path>
        <path d="M-86.65 383.61L68.85 657.36" stroke="#132e65" stroke-width="1.5"></path>
        <path d="M-86.65 383.61L232.16 405.87" stroke="#132e65" stroke-width="1.5"></path>
        <path d="M-86.65 383.61L240.81 489.89" stroke="#132e65" stroke-width="1.5"></path>
        <path d="M-107.07 643.2L-107.07 643.2" stroke="#132e65" stroke-width="1.5"></path>
        <path d="M-107.07 643.2L68.85 657.36" stroke="#132e65" stroke-width="1.5"></path>
        <path d="M-107.07 643.2L62.49 491.13" stroke="#132e65" stroke-width="1.5"></path>
        <path d="M-107.07 643.2L106.15 400.82" stroke="#132e65" stroke-width="1.5"></path>
        <path d="M-107.07 643.2L240.81 489.89" stroke="#132e65" stroke-width="1.5"></path>
        <path d="M-107.07 643.2L232.16 405.87" stroke="#132e65" stroke-width="1.5"></path>
        <path d="M106.15 400.82L106.15 400.82" stroke="#132e65" stroke-width="1.5"></path>
        <path d="M106.15 400.82L62.49 491.13" stroke="#132e65" stroke-width="1.5"></path>
        <path d="M106.15 400.82L232.16 405.87" stroke="#132e65" stroke-width="1.5"></path>
        <path d="M106.15 400.82L240.81 489.89" stroke="#132e65" stroke-width="1.5"></path>
        <path d="M106.15 400.82L354.7 356.74" stroke="#132e65" stroke-width="1.5"></path>
        <path d="M106.15 400.82L68.85 657.36" stroke="#132e65" stroke-width="1.5"></path>
        <path d="M62.49 491.13L62.49 491.13" stroke="#132e65" stroke-width="1.5"></path>
        <path d="M62.49 491.13L68.85 657.36" stroke="#132e65" stroke-width="1.5"></path>
        <path d="M62.49 491.13L240.81 489.89" stroke="#132e65" stroke-width="1.5"></path>
        <path d="M68.85 657.36L68.85 657.36" stroke="#132e65" stroke-width="1.5"></path>
        <path d="M68.85 657.36L240.81 489.89" stroke="#132e65" stroke-width="1.5"></path>
        <path d="M232.16 405.87L232.16 405.87" stroke="#132e65" stroke-width="1.5"></path>
        <path d="M232.16 405.87L240.81 489.89" stroke="#132e65" stroke-width="1.5"></path>
        <path d="M240.81 489.89L240.81 489.89" stroke="#132e65" stroke-width="1.5"></path>
        <path d="M240.81 489.89L398.45 487.9" stroke="#132e65" stroke-width="1.5"></path>
        <path d="M240.81 489.89L354.7 356.74" stroke="#132e65" stroke-width="1.5"></path>
        <path d="M354.7 356.74L354.7 356.74" stroke="#132e65" stroke-width="1.5"></path>
        <path d="M354.7 356.74L232.16 405.87" stroke="#132e65" stroke-width="1.5"></path>
        <path d="M354.7 356.74L398.45 487.9" stroke="#132e65" stroke-width="1.5"></path>
        <path d="M354.7 356.74L502.4 403.42" stroke="#132e65" stroke-width="1.5"></path>
        <path d="M398.45 487.9L398.45 487.9" stroke="#132e65" stroke-width="1.5"></path>
        <path d="M398.45 487.9L502.4 403.42" stroke="#132e65" stroke-width="1.5"></path>
        <path d="M398.45 487.9L547.31 530.87" stroke="#132e65" stroke-width="1.5"></path>
        <path d="M406.84 676.62L406.84 676.62" stroke="#132e65" stroke-width="1.5"></path>
        <path d="M406.84 676.62L398.45 487.9" stroke="#132e65" stroke-width="1.5"></path>
        <path d="M406.84 676.62L547.31 530.87" stroke="#132e65" stroke-width="1.5"></path>
        <path d="M406.84 676.62L240.81 489.89" stroke="#132e65" stroke-width="1.5"></path>
        <path d="M502.4 403.42L502.4 403.42" stroke="#132e65" stroke-width="1.5"></path>
        <path d="M502.4 403.42L547.31 530.87" stroke="#132e65" stroke-width="1.5"></path>
        <path d="M547.31 530.87L547.31 530.87" stroke="#132e65" stroke-width="1.5"></path>
        <path d="M547.31 530.87L658.82 535.35" stroke="#132e65" stroke-width="1.5"></path>
        <path d="M547.31 530.87L687.17 396.11" stroke="#132e65" stroke-width="1.5"></path>
        <path d="M654.96 242.11L654.96 242.11" stroke="#132e65" stroke-width="1.5"></path>
        <path d="M654.96 242.11L687.17 396.11" stroke="#132e65" stroke-width="1.5"></path>
        <path d="M654.96 242.11L815.92 365.53" stroke="#132e65" stroke-width="1.5"></path>
        <path d="M654.96 242.11L859.23 243.43" stroke="#132e65" stroke-width="1.5"></path>
        <path d="M654.96 242.11L502.4 403.42" stroke="#132e65" stroke-width="1.5"></path>
        <path d="M654.96 242.11L857.18 59.73" stroke="#132e65" stroke-width="1.5"></path>
        <path d="M654.96 242.11L658.82 535.35" stroke="#132e65" stroke-width="1.5"></path>
        <path d="M687.17 396.11L687.17 396.11" stroke="#132e65" stroke-width="1.5"></path>
        <path d="M687.17 396.11L815.92 365.53" stroke="#132e65" stroke-width="1.5"></path>
        <path d="M687.17 396.11L658.82 535.35" stroke="#132e65" stroke-width="1.5"></path>
        <path d="M687.17 396.11L502.4 403.42" stroke="#132e65" stroke-width="1.5"></path>
        <path d="M658.82 535.35L658.82 535.35" stroke="#132e65" stroke-width="1.5"></path>
        <path d="M658.82 535.35L682.21 694.13" stroke="#132e65" stroke-width="1.5"></path>
        <path d="M658.82 535.35L848.58 500.74" stroke="#132e65" stroke-width="1.5"></path>
        <path d="M658.82 535.35L502.4 403.42" stroke="#132e65" stroke-width="1.5"></path>
        <path d="M682.21 694.13L682.21 694.13" stroke="#132e65" stroke-width="1.5"></path>
        <path d="M682.21 694.13L849.75 686.15" stroke="#132e65" stroke-width="1.5"></path>
        <path d="M857.18 59.73L857.18 59.73" stroke="#132e65" stroke-width="1.5"></path>
        <path d="M857.18 59.73L947.11 87.39" stroke="#132e65" stroke-width="1.5"></path>
        <path d="M857.18 59.73L976.04 -59.01" stroke="#132e65" stroke-width="1.5"></path>
        <path d="M857.18 59.73L859.23 243.43" stroke="#132e65" stroke-width="1.5"></path>
        <path d="M859.23 243.43L859.23 243.43" stroke="#132e65" stroke-width="1.5"></path>
        <path d="M859.23 243.43L815.92 365.53" stroke="#132e65" stroke-width="1.5"></path>
        <path d="M859.23 243.43L1003.4 255.5" stroke="#132e65" stroke-width="1.5"></path>
        <path d="M859.23 243.43L947.11 87.39" stroke="#132e65" stroke-width="1.5"></path>
        <path d="M815.92 365.53L815.92 365.53" stroke="#132e65" stroke-width="1.5"></path>
        <path d="M815.92 365.53L848.58 500.74" stroke="#132e65" stroke-width="1.5"></path>
        <path d="M815.92 365.53L965.27 409.57" stroke="#132e65" stroke-width="1.5"></path>
        <path d="M815.92 365.53L1003.4 255.5" stroke="#132e65" stroke-width="1.5"></path>
        <path d="M848.58 500.74L848.58 500.74" stroke="#132e65" stroke-width="1.5"></path>
        <path d="M848.58 500.74L965.27 409.57" stroke="#132e65" stroke-width="1.5"></path>
        <path d="M849.75 686.15L849.75 686.15" stroke="#132e65" stroke-width="1.5"></path>
        <path d="M849.75 686.15L937.93 651.37" stroke="#132e65" stroke-width="1.5"></path>
        <path d="M849.75 686.15L848.58 500.74" stroke="#132e65" stroke-width="1.5"></path>
        <path d="M976.04 -59.01L976.04 -59.01" stroke="#132e65" stroke-width="1.5"></path>
        <path d="M976.04 -59.01L1094.56 -86.63" stroke="#132e65" stroke-width="1.5"></path>
        <path d="M976.04 -59.01L947.11 87.39" stroke="#132e65" stroke-width="1.5"></path>
        <path d="M976.04 -59.01L1109.27 72.46" stroke="#132e65" stroke-width="1.5"></path>
        <path d="M976.04 -59.01L1003.4 255.5" stroke="#132e65" stroke-width="1.5"></path>
        <path d="M947.11 87.39L947.11 87.39" stroke="#132e65" stroke-width="1.5"></path>
        <path d="M947.11 87.39L1109.27 72.46" stroke="#132e65" stroke-width="1.5"></path>
        <path d="M947.11 87.39L1003.4 255.5" stroke="#132e65" stroke-width="1.5"></path>
        <path d="M1003.4 255.5L1003.4 255.5" stroke="#132e65" stroke-width="1.5"></path>
        <path d="M1003.4 255.5L1155.88 224.15" stroke="#132e65" stroke-width="1.5"></path>
        <path d="M1003.4 255.5L965.27 409.57" stroke="#132e65" stroke-width="1.5"></path>
        <path d="M965.27 409.57L965.27 409.57" stroke="#132e65" stroke-width="1.5"></path>
        <path d="M965.27 409.57L996.41 524.27" stroke="#132e65" stroke-width="1.5"></path>
        <path d="M965.27 409.57L1109.19 388.16" stroke="#132e65" stroke-width="1.5"></path>
        <path d="M996.41 524.27L996.41 524.27" stroke="#132e65" stroke-width="1.5"></path>
        <path d="M996.41 524.27L1118.52 495.82" stroke="#132e65" stroke-width="1.5"></path>
        <path d="M996.41 524.27L937.93 651.37" stroke="#132e65" stroke-width="1.5"></path>
        <path d="M937.93 651.37L937.93 651.37" stroke="#132e65" stroke-width="1.5"></path>
        <path d="M1094.56 -86.63L1094.56 -86.63" stroke="#132e65" stroke-width="1.5"></path>
        <path d="M1094.56 -86.63L1109.27 72.46" stroke="#132e65" stroke-width="1.5"></path>
        <path d="M1094.56 -86.63L1309.31 -51.3" stroke="#132e65" stroke-width="1.5"></path>
        <path d="M1109.27 72.46L1109.27 72.46" stroke="#132e65" stroke-width="1.5"></path>
        <path d="M1109.27 72.46L1251.48 97.53" stroke="#132e65" stroke-width="1.5"></path>
        <path d="M1109.27 72.46L1155.88 224.15" stroke="#132e65" stroke-width="1.5"></path>
        <path d="M1155.88 224.15L1155.88 224.15" stroke="#132e65" stroke-width="1.5"></path>
        <path d="M1155.88 224.15L1284.84 190.73" stroke="#132e65" stroke-width="1.5"></path>
        <path d="M1109.19 388.16L1109.19 388.16" stroke="#132e65" stroke-width="1.5"></path>
        <path d="M1109.19 388.16L1118.52 495.82" stroke="#132e65" stroke-width="1.5"></path>
        <path d="M1118.52 495.82L1118.52 495.82" stroke="#132e65" stroke-width="1.5"></path>
        <path d="M1088.39 689.2L1088.39 689.2" stroke="#132e65" stroke-width="1.5"></path>
        <path d="M1088.39 689.2L937.93 651.37" stroke="#132e65" stroke-width="1.5"></path>
        <path d="M1088.39 689.2L996.41 524.27" stroke="#132e65" stroke-width="1.5"></path>
        <path d="M1088.39 689.2L1118.52 495.82" stroke="#132e65" stroke-width="1.5"></path>
        <path d="M1088.39 689.2L1311.15 673.87" stroke="#132e65" stroke-width="1.5"></path>
        <path d="M1088.39 689.2L1266.88 547.57" stroke="#132e65" stroke-width="1.5"></path>
        <path d="M1088.39 689.2L849.75 686.15" stroke="#132e65" stroke-width="1.5"></path>
        <path d="M1309.31 -51.3L1309.31 -51.3" stroke="#132e65" stroke-width="1.5"></path>
        <path d="M1309.31 -51.3L1448.47 -42.21" stroke="#132e65" stroke-width="1.5"></path>
        <path d="M1309.31 -51.3L1251.48 97.53" stroke="#132e65" stroke-width="1.5"></path>
        <path d="M1309.31 -51.3L1459.88 63.47" stroke="#132e65" stroke-width="1.5"></path>
        <path d="M1251.48 97.53L1251.48 97.53" stroke="#132e65" stroke-width="1.5"></path>
        <path d="M1251.48 97.53L1284.84 190.73" stroke="#132e65" stroke-width="1.5"></path>
        <path d="M1251.48 97.53L1155.88 224.15" stroke="#132e65" stroke-width="1.5"></path>
        <path d="M1284.84 190.73L1284.84 190.73" stroke="#132e65" stroke-width="1.5"></path>
        <path d="M1284.84 190.73L1396.43 231.34" stroke="#132e65" stroke-width="1.5"></path>
        <path d="M1284.84 190.73L1292.1 369.06" stroke="#132e65" stroke-width="1.5"></path>
        <path d="M1284.84 190.73L1109.27 72.46" stroke="#132e65" stroke-width="1.5"></path>
        <path d="M1284.84 190.73L1459.88 63.47" stroke="#132e65" stroke-width="1.5"></path>
        <path d="M1292.1 369.06L1292.1 369.06" stroke="#132e65" stroke-width="1.5"></path>
        <path d="M1292.1 369.06L1400.27 393.73" stroke="#132e65" stroke-width="1.5"></path>
        <path d="M1292.1 369.06L1396.43 231.34" stroke="#132e65" stroke-width="1.5"></path>
        <path d="M1292.1 369.06L1266.88 547.57" stroke="#132e65" stroke-width="1.5"></path>
        <path d="M1292.1 369.06L1109.19 388.16" stroke="#132e65" stroke-width="1.5"></path>
        <path d="M1266.88 547.57L1266.88 547.57" stroke="#132e65" stroke-width="1.5"></path>
        <path d="M1266.88 547.57L1311.15 673.87" stroke="#132e65" stroke-width="1.5"></path>
        <path d="M1266.88 547.57L1418.47 543.53" stroke="#132e65" stroke-width="1.5"></path>
        <path d="M1266.88 547.57L1118.52 495.82" stroke="#132e65" stroke-width="1.5"></path>
        <path d="M1311.15 673.87L1311.15 673.87" stroke="#132e65" stroke-width="1.5"></path>
        <path d="M1311.15 673.87L1418.47 543.53" stroke="#132e65" stroke-width="1.5"></path>
        <path d="M1311.15 673.87L1557.3 711.57" stroke="#132e65" stroke-width="1.5"></path>
        <path d="M1448.47 -42.21L1448.47 -42.21" stroke="#132e65" stroke-width="1.5"></path>
        <path d="M1448.47 -42.21L1459.88 63.47" stroke="#132e65" stroke-width="1.5"></path>
        <path d="M1448.47 -42.21L1567.24 -71.59" stroke="#132e65" stroke-width="1.5"></path>
        <path d="M1459.88 63.47L1459.88 63.47" stroke="#132e65" stroke-width="1.5"></path>
        <path d="M1459.88 63.47L1608.04 99.82" stroke="#132e65" stroke-width="1.5"></path>
        <path d="M1459.88 63.47L1567.24 -71.59" stroke="#132e65" stroke-width="1.5"></path>
        <path d="M1459.88 63.47L1396.43 231.34" stroke="#132e65" stroke-width="1.5"></path>
        <path d="M1396.43 231.34L1396.43 231.34" stroke="#132e65" stroke-width="1.5"></path>
        <path d="M1396.43 231.34L1400.27 393.73" stroke="#132e65" stroke-width="1.5"></path>
        <path d="M1400.27 393.73L1400.27 393.73" stroke="#132e65" stroke-width="1.5"></path>
        <path d="M1400.27 393.73L1418.47 543.53" stroke="#132e65" stroke-width="1.5"></path>
        <path d="M1400.27 393.73L1558.11 350.46" stroke="#132e65" stroke-width="1.5"></path>
        <path d="M1400.27 393.73L1266.88 547.57" stroke="#132e65" stroke-width="1.5"></path>
        <path d="M1418.47 543.53L1418.47 543.53" stroke="#132e65" stroke-width="1.5"></path>
        <path d="M1418.47 543.53L1606.58 523.51" stroke="#132e65" stroke-width="1.5"></path>
        <path d="M1567.24 -71.59L1567.24 -71.59" stroke="#132e65" stroke-width="1.5"></path>
        <path d="M1567.24 -71.59L1608.04 99.82" stroke="#132e65" stroke-width="1.5"></path>
        <path d="M1608.04 99.82L1608.04 99.82" stroke="#132e65" stroke-width="1.5"></path>
        <path d="M1608.04 99.82L1586.94 239.41" stroke="#132e65" stroke-width="1.5"></path>
        <path d="M1586.94 239.41L1586.94 239.41" stroke="#132e65" stroke-width="1.5"></path>
        <path d="M1586.94 239.41L1558.11 350.46" stroke="#132e65" stroke-width="1.5"></path>
        <path d="M1586.94 239.41L1396.43 231.34" stroke="#132e65" stroke-width="1.5"></path>
        <path d="M1586.94 239.41L1459.88 63.47" stroke="#132e65" stroke-width="1.5"></path>
        <path d="M1586.94 239.41L1400.27 393.73" stroke="#132e65" stroke-width="1.5"></path>
        <path d="M1558.11 350.46L1558.11 350.46" stroke="#132e65" stroke-width="1.5"></path>
        <path d="M1558.11 350.46L1606.58 523.51" stroke="#132e65" stroke-width="1.5"></path>
        <path d="M1558.11 350.46L1396.43 231.34" stroke="#132e65" stroke-width="1.5"></path>
        <path d="M1558.11 350.46L1418.47 543.53" stroke="#132e65" stroke-width="1.5"></path>
        <path d="M1558.11 350.46L1608.04 99.82" stroke="#132e65" stroke-width="1.5"></path>
        <path d="M1606.58 523.51L1606.58 523.51" stroke="#132e65" stroke-width="1.5"></path>
        <path d="M1606.58 523.51L1557.3 711.57" stroke="#132e65" stroke-width="1.5"></path>
        <path d="M1606.58 523.51L1400.27 393.73" stroke="#132e65" stroke-width="1.5"></path>
        <path d="M1557.3 711.57L1557.3 711.57" stroke="#132e65" stroke-width="1.5"></path>
        <path d="M1557.3 711.57L1418.47 543.53" stroke="#132e65" stroke-width="1.5"></path>
        <circle r="5" cx="-86.65" cy="383.61" fill="#132e65"></circle>
        <circle r="5" cx="-107.07" cy="643.2" fill="#132e65"></circle>
        <circle r="5" cx="106.15" cy="400.82" fill="#132e65"></circle>
        <circle r="5" cx="62.49" cy="491.13" fill="#132e65"></circle>
        <circle r="5" cx="68.85" cy="657.36" fill="#132e65"></circle>
        <circle r="5" cx="232.16" cy="405.87" fill="#132e65"></circle>
        <circle r="5" cx="240.81" cy="489.89" fill="#132e65"></circle>
        <circle r="5" cx="354.7" cy="356.74" fill="#132e65"></circle>
        <circle r="5" cx="398.45" cy="487.9" fill="#132e65"></circle>
        <circle r="5" cx="406.84" cy="676.62" fill="#132e65"></circle>
        <circle r="5" cx="502.4" cy="403.42" fill="#132e65"></circle>
        <circle r="5" cx="547.31" cy="530.87" fill="#132e65"></circle>
        <circle r="5" cx="654.96" cy="242.11" fill="#132e65"></circle>
        <circle r="5" cx="687.17" cy="396.11" fill="#132e65"></circle>
        <circle r="5" cx="658.82" cy="535.35" fill="#132e65"></circle>
        <circle r="5" cx="682.21" cy="694.13" fill="#132e65"></circle>
        <circle r="5" cx="857.18" cy="59.73" fill="#132e65"></circle>
        <circle r="5" cx="859.23" cy="243.43" fill="#132e65"></circle>
        <circle r="5" cx="815.92" cy="365.53" fill="#132e65"></circle>
        <circle r="5" cx="848.58" cy="500.74" fill="#132e65"></circle>
        <circle r="5" cx="849.75" cy="686.15" fill="#132e65"></circle>
        <circle r="5" cx="976.04" cy="-59.01" fill="#132e65"></circle>
        <circle r="5" cx="947.11" cy="87.39" fill="#132e65"></circle>
        <circle r="5" cx="1003.4" cy="255.5" fill="#132e65"></circle>
        <circle r="5" cx="965.27" cy="409.57" fill="#132e65"></circle>
        <circle r="5" cx="996.41" cy="524.27" fill="#132e65"></circle>
        <circle r="5" cx="937.93" cy="651.37" fill="#132e65"></circle>
        <circle r="5" cx="1094.56" cy="-86.63" fill="#132e65"></circle>
        <circle r="5" cx="1109.27" cy="72.46" fill="#132e65"></circle>
        <circle r="5" cx="1155.88" cy="224.15" fill="#132e65"></circle>
        <circle r="5" cx="1109.19" cy="388.16" fill="#132e65"></circle>
        <circle r="5" cx="1118.52" cy="495.82" fill="#132e65"></circle>
        <circle r="5" cx="1088.39" cy="689.2" fill="#132e65"></circle>
        <circle r="5" cx="1309.31" cy="-51.3" fill="#132e65"></circle>
        <circle r="5" cx="1251.48" cy="97.53" fill="#132e65"></circle>
        <circle r="5" cx="1284.84" cy="190.73" fill="#132e65"></circle>
        <circle r="5" cx="1292.1" cy="369.06" fill="#132e65"></circle>
        <circle r="5" cx="1266.88" cy="547.57" fill="#132e65"></circle>
        <circle r="5" cx="1311.15" cy="673.87" fill="#132e65"></circle>
        <circle r="5" cx="1448.47" cy="-42.21" fill="#132e65"></circle>
        <circle r="5" cx="1459.88" cy="63.47" fill="#132e65"></circle>
        <circle r="5" cx="1396.43" cy="231.34" fill="#132e65"></circle>
        <circle r="5" cx="1400.27" cy="393.73" fill="#132e65"></circle>
        <circle r="5" cx="1418.47" cy="543.53" fill="#132e65"></circle>
        <circle r="5" cx="1567.24" cy="-71.59" fill="#132e65"></circle>
        <circle r="5" cx="1608.04" cy="99.82" fill="#132e65"></circle>
        <circle r="5" cx="1586.94" cy="239.41" fill="#132e65"></circle>
        <circle r="5" cx="1558.11" cy="350.46" fill="#132e65"></circle>
        <circle r="5" cx="1606.58" cy="523.51" fill="#132e65"></circle>
        <circle r="5" cx="1557.3" cy="711.57" fill="#132e65"></circle>
        <path d="M-89.83 555.55L-89.83 555.55" stroke="hsl(228.5, 77.2%, 51.5%)" stroke-width="1.5"></path>
        <path d="M-89.83 555.55L-39.52 684.5" stroke="hsl(228.5, 77.2%, 51.5%)" stroke-width="1.5"></path>
        <path d="M-89.83 555.55L80.89 666.04" stroke="hsl(228.5, 77.2%, 51.5%)" stroke-width="1.5"></path>
        <path d="M-89.83 555.55L106.72 495.59" stroke="hsl(228.5, 77.2%, 51.5%)" stroke-width="1.5"></path>
        <path d="M-89.83 555.55L243.28 638.49" stroke="hsl(228.5, 77.2%, 51.5%)" stroke-width="1.5"></path>
        <path d="M393.35 671.65L393.35 671.65" stroke="hsl(228.5, 77.2%, 51.5%)" stroke-width="1.5"></path>
        <path d="M393.35 671.65L529.9 698.44" stroke="hsl(228.5, 77.2%, 51.5%)" stroke-width="1.5"></path>
        <path d="M393.35 671.65L243.28 638.49" stroke="hsl(228.5, 77.2%, 51.5%)" stroke-width="1.5"></path>
        <path d="M393.35 671.65L390.01 507.44" stroke="hsl(228.5, 77.2%, 51.5%)" stroke-width="1.5"></path>
        <path d="M393.35 671.65L260.6 529.76" stroke="hsl(228.5, 77.2%, 51.5%)" stroke-width="1.5"></path>
        <path d="M640.29 542.89L640.29 542.89" stroke="hsl(228.5, 77.2%, 51.5%)" stroke-width="1.5"></path>
        <path d="M640.29 542.89L698.96 646.06" stroke="hsl(228.5, 77.2%, 51.5%)" stroke-width="1.5"></path>
        <path d="M640.29 542.89L788.21 539.55" stroke="hsl(228.5, 77.2%, 51.5%)" stroke-width="1.5"></path>
        <path d="M640.29 542.89L661.43 388.79" stroke="hsl(228.5, 77.2%, 51.5%)" stroke-width="1.5"></path>
        <path d="M640.29 542.89L529.9 698.44" stroke="hsl(228.5, 77.2%, 51.5%)" stroke-width="1.5"></path>
        <path d="M858.15 655.01L858.15 655.01" stroke="hsl(228.5, 77.2%, 51.5%)" stroke-width="1.5"></path>
        <path d="M858.15 655.01L968.32 667.03" stroke="hsl(228.5, 77.2%, 51.5%)" stroke-width="1.5"></path>
        <path d="M858.15 655.01L788.21 539.55" stroke="hsl(228.5, 77.2%, 51.5%)" stroke-width="1.5"></path>
        <path d="M858.15 655.01L698.96 646.06" stroke="hsl(228.5, 77.2%, 51.5%)" stroke-width="1.5"></path>
        <path d="M858.15 655.01L952.71 505.94" stroke="hsl(228.5, 77.2%, 51.5%)" stroke-width="1.5"></path>
        <path d="M952.71 505.94L952.71 505.94" stroke="hsl(228.5, 77.2%, 51.5%)" stroke-width="1.5"></path>
        <path d="M952.71 505.94L1011.71 408.55" stroke="hsl(228.5, 77.2%, 51.5%)" stroke-width="1.5"></path>
        <path d="M952.71 505.94L850.01 398.72" stroke="hsl(228.5, 77.2%, 51.5%)" stroke-width="1.5"></path>
        <path d="M1280.06 356.91L1280.06 356.91" stroke="hsl(228.5, 77.2%, 51.5%)" stroke-width="1.5"></path>
        <path d="M1280.06 356.91L1237.92 231.9" stroke="hsl(228.5, 77.2%, 51.5%)" stroke-width="1.5"></path>
        <path d="M1280.06 356.91L1437.58 347.04" stroke="hsl(228.5, 77.2%, 51.5%)" stroke-width="1.5"></path>
        <path d="M1280.06 356.91L1114.46 383.63" stroke="hsl(228.5, 77.2%, 51.5%)" stroke-width="1.5"></path>
        <path d="M1280.06 356.91L1240.88 545.22" stroke="hsl(228.5, 77.2%, 51.5%)" stroke-width="1.5"></path>
        <path d="M1280.06 356.91L1109.53 229.29" stroke="hsl(228.5, 77.2%, 51.5%)" stroke-width="1.5"></path>
        <path d="M1280.06 356.91L1426.85 194.29" stroke="hsl(228.5, 77.2%, 51.5%)" stroke-width="1.5"></path>
        <path d="M-39.52 684.5L-39.52 684.5" stroke="hsl(228.5, 77.2%, 51.5%)" stroke-width="1.5"></path>
        <path d="M-39.52 684.5L80.89 666.04" stroke="hsl(228.5, 77.2%, 51.5%)" stroke-width="1.5"></path>
        <path d="M-39.52 684.5L106.72 495.59" stroke="hsl(228.5, 77.2%, 51.5%)" stroke-width="1.5"></path>
        <path d="M106.72 495.59L106.72 495.59" stroke="hsl(228.5, 77.2%, 51.5%)" stroke-width="1.5"></path>
        <path d="M106.72 495.59L260.6 529.76" stroke="hsl(228.5, 77.2%, 51.5%)" stroke-width="1.5"></path>
        <path d="M106.72 495.59L80.89 666.04" stroke="hsl(228.5, 77.2%, 51.5%)" stroke-width="1.5"></path>
        <path d="M106.72 495.59L243.28 638.49" stroke="hsl(228.5, 77.2%, 51.5%)" stroke-width="1.5"></path>
        <path d="M80.89 666.04L80.89 666.04" stroke="hsl(228.5, 77.2%, 51.5%)" stroke-width="1.5"></path>
        <path d="M80.89 666.04L243.28 638.49" stroke="hsl(228.5, 77.2%, 51.5%)" stroke-width="1.5"></path>
        <path d="M260.6 529.76L260.6 529.76" stroke="hsl(228.5, 77.2%, 51.5%)" stroke-width="1.5"></path>
        <path d="M260.6 529.76L243.28 638.49" stroke="hsl(228.5, 77.2%, 51.5%)" stroke-width="1.5"></path>
        <path d="M260.6 529.76L390.01 507.44" stroke="hsl(228.5, 77.2%, 51.5%)" stroke-width="1.5"></path>
        <path d="M260.6 529.76L80.89 666.04" stroke="hsl(228.5, 77.2%, 51.5%)" stroke-width="1.5"></path>
        <path d="M243.28 638.49L243.28 638.49" stroke="hsl(228.5, 77.2%, 51.5%)" stroke-width="1.5"></path>
        <path d="M390.01 507.44L390.01 507.44" stroke="hsl(228.5, 77.2%, 51.5%)" stroke-width="1.5"></path>
        <path d="M390.01 507.44L243.28 638.49" stroke="hsl(228.5, 77.2%, 51.5%)" stroke-width="1.5"></path>
        <path d="M390.01 507.44L529.9 698.44" stroke="hsl(228.5, 77.2%, 51.5%)" stroke-width="1.5"></path>
        <path d="M390.01 507.44L640.29 542.89" stroke="hsl(228.5, 77.2%, 51.5%)" stroke-width="1.5"></path>
        <path d="M390.01 507.44L106.72 495.59" stroke="hsl(228.5, 77.2%, 51.5%)" stroke-width="1.5"></path>
        <path d="M529.9 698.44L529.9 698.44" stroke="hsl(228.5, 77.2%, 51.5%)" stroke-width="1.5"></path>
        <path d="M529.9 698.44L698.96 646.06" stroke="hsl(228.5, 77.2%, 51.5%)" stroke-width="1.5"></path>
        <path d="M661.43 388.79L661.43 388.79" stroke="hsl(228.5, 77.2%, 51.5%)" stroke-width="1.5"></path>
        <path d="M661.43 388.79L850.01 398.72" stroke="hsl(228.5, 77.2%, 51.5%)" stroke-width="1.5"></path>
        <path d="M661.43 388.79L788.21 539.55" stroke="hsl(228.5, 77.2%, 51.5%)" stroke-width="1.5"></path>
        <path d="M661.43 388.79L698.96 646.06" stroke="hsl(228.5, 77.2%, 51.5%)" stroke-width="1.5"></path>
        <path d="M661.43 388.79L390.01 507.44" stroke="hsl(228.5, 77.2%, 51.5%)" stroke-width="1.5"></path>
        <path d="M661.43 388.79L952.71 505.94" stroke="hsl(228.5, 77.2%, 51.5%)" stroke-width="1.5"></path>
        <path d="M698.96 646.06L698.96 646.06" stroke="hsl(228.5, 77.2%, 51.5%)" stroke-width="1.5"></path>
        <path d="M698.96 646.06L788.21 539.55" stroke="hsl(228.5, 77.2%, 51.5%)" stroke-width="1.5"></path>
        <path d="M850.01 398.72L850.01 398.72" stroke="hsl(228.5, 77.2%, 51.5%)" stroke-width="1.5"></path>
        <path d="M850.01 398.72L788.21 539.55" stroke="hsl(228.5, 77.2%, 51.5%)" stroke-width="1.5"></path>
        <path d="M850.01 398.72L1011.71 408.55" stroke="hsl(228.5, 77.2%, 51.5%)" stroke-width="1.5"></path>
        <path d="M850.01 398.72L1000.9 229.56" stroke="hsl(228.5, 77.2%, 51.5%)" stroke-width="1.5"></path>
        <path d="M788.21 539.55L788.21 539.55" stroke="hsl(228.5, 77.2%, 51.5%)" stroke-width="1.5"></path>
        <path d="M1000.9 229.56L1000.9 229.56" stroke="hsl(228.5, 77.2%, 51.5%)" stroke-width="1.5"></path>
        <path d="M1000.9 229.56L1109.53 229.29" stroke="hsl(228.5, 77.2%, 51.5%)" stroke-width="1.5"></path>
        <path d="M1000.9 229.56L1011.71 408.55" stroke="hsl(228.5, 77.2%, 51.5%)" stroke-width="1.5"></path>
        <path d="M1000.9 229.56L1114.46 383.63" stroke="hsl(228.5, 77.2%, 51.5%)" stroke-width="1.5"></path>
        <path d="M1000.9 229.56L1237.92 231.9" stroke="hsl(228.5, 77.2%, 51.5%)" stroke-width="1.5"></path>
        <path d="M1011.71 408.55L1011.71 408.55" stroke="hsl(228.5, 77.2%, 51.5%)" stroke-width="1.5"></path>
        <path d="M1011.71 408.55L1114.46 383.63" stroke="hsl(228.5, 77.2%, 51.5%)" stroke-width="1.5"></path>
        <path d="M968.32 667.03L968.32 667.03" stroke="hsl(228.5, 77.2%, 51.5%)" stroke-width="1.5"></path>
        <path d="M968.32 667.03L1127.63 664.45" stroke="hsl(228.5, 77.2%, 51.5%)" stroke-width="1.5"></path>
        <path d="M968.32 667.03L952.71 505.94" stroke="hsl(228.5, 77.2%, 51.5%)" stroke-width="1.5"></path>
        <path d="M968.32 667.03L788.21 539.55" stroke="hsl(228.5, 77.2%, 51.5%)" stroke-width="1.5"></path>
        <path d="M968.32 667.03L1011.71 408.55" stroke="hsl(228.5, 77.2%, 51.5%)" stroke-width="1.5"></path>
        <path d="M968.32 667.03L698.96 646.06" stroke="hsl(228.5, 77.2%, 51.5%)" stroke-width="1.5"></path>
        <path d="M1109.53 229.29L1109.53 229.29" stroke="hsl(228.5, 77.2%, 51.5%)" stroke-width="1.5"></path>
        <path d="M1114.46 383.63L1114.46 383.63" stroke="hsl(228.5, 77.2%, 51.5%)" stroke-width="1.5"></path>
        <path d="M1114.46 383.63L1109.53 229.29" stroke="hsl(228.5, 77.2%, 51.5%)" stroke-width="1.5"></path>
        <path d="M1127.63 664.45L1127.63 664.45" stroke="hsl(228.5, 77.2%, 51.5%)" stroke-width="1.5"></path>
        <path d="M1127.63 664.45L1263.93 678.35" stroke="hsl(228.5, 77.2%, 51.5%)" stroke-width="1.5"></path>
        <path d="M1127.63 664.45L1240.88 545.22" stroke="hsl(228.5, 77.2%, 51.5%)" stroke-width="1.5"></path>
        <path d="M1127.63 664.45L952.71 505.94" stroke="hsl(228.5, 77.2%, 51.5%)" stroke-width="1.5"></path>
        <path d="M1261.6 -61.1L1261.6 -61.1" stroke="hsl(228.5, 77.2%, 51.5%)" stroke-width="1.5"></path>
        <path d="M1261.6 -61.1L1242.48 79.09" stroke="hsl(228.5, 77.2%, 51.5%)" stroke-width="1.5"></path>
        <path d="M1261.6 -61.1L1444.63 -65.15" stroke="hsl(228.5, 77.2%, 51.5%)" stroke-width="1.5"></path>
        <path d="M1261.6 -61.1L1449.05 61.17" stroke="hsl(228.5, 77.2%, 51.5%)" stroke-width="1.5"></path>
        <path d="M1261.6 -61.1L1237.92 231.9" stroke="hsl(228.5, 77.2%, 51.5%)" stroke-width="1.5"></path>
        <path d="M1261.6 -61.1L1426.85 194.29" stroke="hsl(228.5, 77.2%, 51.5%)" stroke-width="1.5"></path>
        <path d="M1242.48 79.09L1242.48 79.09" stroke="hsl(228.5, 77.2%, 51.5%)" stroke-width="1.5"></path>
        <path d="M1242.48 79.09L1237.92 231.9" stroke="hsl(228.5, 77.2%, 51.5%)" stroke-width="1.5"></path>
        <path d="M1242.48 79.09L1109.53 229.29" stroke="hsl(228.5, 77.2%, 51.5%)" stroke-width="1.5"></path>
        <path d="M1242.48 79.09L1449.05 61.17" stroke="hsl(228.5, 77.2%, 51.5%)" stroke-width="1.5"></path>
        <path d="M1242.48 79.09L1426.85 194.29" stroke="hsl(228.5, 77.2%, 51.5%)" stroke-width="1.5"></path>
        <path d="M1242.48 79.09L1444.63 -65.15" stroke="hsl(228.5, 77.2%, 51.5%)" stroke-width="1.5"></path>
        <path d="M1237.92 231.9L1237.92 231.9" stroke="hsl(228.5, 77.2%, 51.5%)" stroke-width="1.5"></path>
        <path d="M1237.92 231.9L1109.53 229.29" stroke="hsl(228.5, 77.2%, 51.5%)" stroke-width="1.5"></path>
        <path d="M1237.92 231.9L1426.85 194.29" stroke="hsl(228.5, 77.2%, 51.5%)" stroke-width="1.5"></path>
        <path d="M1237.92 231.9L1114.46 383.63" stroke="hsl(228.5, 77.2%, 51.5%)" stroke-width="1.5"></path>
        <path d="M1240.88 545.22L1240.88 545.22" stroke="hsl(228.5, 77.2%, 51.5%)" stroke-width="1.5"></path>
        <path d="M1240.88 545.22L1263.93 678.35" stroke="hsl(228.5, 77.2%, 51.5%)" stroke-width="1.5"></path>
        <path d="M1240.88 545.22L1114.46 383.63" stroke="hsl(228.5, 77.2%, 51.5%)" stroke-width="1.5"></path>
        <path d="M1240.88 545.22L1451.31 529.86" stroke="hsl(228.5, 77.2%, 51.5%)" stroke-width="1.5"></path>
        <path d="M1240.88 545.22L1011.71 408.55" stroke="hsl(228.5, 77.2%, 51.5%)" stroke-width="1.5"></path>
        <path d="M1263.93 678.35L1263.93 678.35" stroke="hsl(228.5, 77.2%, 51.5%)" stroke-width="1.5"></path>
        <path d="M1444.63 -65.15L1444.63 -65.15" stroke="hsl(228.5, 77.2%, 51.5%)" stroke-width="1.5"></path>
        <path d="M1444.63 -65.15L1449.05 61.17" stroke="hsl(228.5, 77.2%, 51.5%)" stroke-width="1.5"></path>
        <path d="M1444.63 -65.15L1581.93 -55.92" stroke="hsl(228.5, 77.2%, 51.5%)" stroke-width="1.5"></path>
        <path d="M1444.63 -65.15L1575.53 89.78" stroke="hsl(228.5, 77.2%, 51.5%)" stroke-width="1.5"></path>
        <path d="M1444.63 -65.15L1426.85 194.29" stroke="hsl(228.5, 77.2%, 51.5%)" stroke-width="1.5"></path>
        <path d="M1449.05 61.17L1449.05 61.17" stroke="hsl(228.5, 77.2%, 51.5%)" stroke-width="1.5"></path>
        <path d="M1449.05 61.17L1575.53 89.78" stroke="hsl(228.5, 77.2%, 51.5%)" stroke-width="1.5"></path>
        <path d="M1449.05 61.17L1426.85 194.29" stroke="hsl(228.5, 77.2%, 51.5%)" stroke-width="1.5"></path>
        <path d="M1449.05 61.17L1581.93 -55.92" stroke="hsl(228.5, 77.2%, 51.5%)" stroke-width="1.5"></path>
        <path d="M1426.85 194.29L1426.85 194.29" stroke="hsl(228.5, 77.2%, 51.5%)" stroke-width="1.5"></path>
        <path d="M1426.85 194.29L1579.65 198.89" stroke="hsl(228.5, 77.2%, 51.5%)" stroke-width="1.5"></path>
        <path d="M1426.85 194.29L1437.58 347.04" stroke="hsl(228.5, 77.2%, 51.5%)" stroke-width="1.5"></path>
        <path d="M1437.58 347.04L1437.58 347.04" stroke="hsl(228.5, 77.2%, 51.5%)" stroke-width="1.5"></path>
        <path d="M1451.31 529.86L1451.31 529.86" stroke="hsl(228.5, 77.2%, 51.5%)" stroke-width="1.5"></path>
        <path d="M1451.31 529.86L1582.59 558.54" stroke="hsl(228.5, 77.2%, 51.5%)" stroke-width="1.5"></path>
        <path d="M1451.31 529.86L1437.58 347.04" stroke="hsl(228.5, 77.2%, 51.5%)" stroke-width="1.5"></path>
        <path d="M1451.31 529.86L1574.98 694.84" stroke="hsl(228.5, 77.2%, 51.5%)" stroke-width="1.5"></path>
        <path d="M1451.31 529.86L1609.96 382.16" stroke="hsl(228.5, 77.2%, 51.5%)" stroke-width="1.5"></path>
        <path d="M1581.93 -55.92L1581.93 -55.92" stroke="hsl(228.5, 77.2%, 51.5%)" stroke-width="1.5"></path>
        <path d="M1581.93 -55.92L1575.53 89.78" stroke="hsl(228.5, 77.2%, 51.5%)" stroke-width="1.5"></path>
        <path d="M1581.93 -55.92L1579.65 198.89" stroke="hsl(228.5, 77.2%, 51.5%)" stroke-width="1.5"></path>
        <path d="M1581.93 -55.92L1426.85 194.29" stroke="hsl(228.5, 77.2%, 51.5%)" stroke-width="1.5"></path>
        <path d="M1575.53 89.78L1575.53 89.78" stroke="hsl(228.5, 77.2%, 51.5%)" stroke-width="1.5"></path>
        <path d="M1575.53 89.78L1579.65 198.89" stroke="hsl(228.5, 77.2%, 51.5%)" stroke-width="1.5"></path>
        <path d="M1575.53 89.78L1426.85 194.29" stroke="hsl(228.5, 77.2%, 51.5%)" stroke-width="1.5"></path>
        <path d="M1579.65 198.89L1579.65 198.89" stroke="hsl(228.5, 77.2%, 51.5%)" stroke-width="1.5"></path>
        <path d="M1579.65 198.89L1609.96 382.16" stroke="hsl(228.5, 77.2%, 51.5%)" stroke-width="1.5"></path>
        <path d="M1579.65 198.89L1449.05 61.17" stroke="hsl(228.5, 77.2%, 51.5%)" stroke-width="1.5"></path>
        <path d="M1579.65 198.89L1437.58 347.04" stroke="hsl(228.5, 77.2%, 51.5%)" stroke-width="1.5"></path>
        <path d="M1609.96 382.16L1609.96 382.16" stroke="hsl(228.5, 77.2%, 51.5%)" stroke-width="1.5"></path>
        <path d="M1609.96 382.16L1437.58 347.04" stroke="hsl(228.5, 77.2%, 51.5%)" stroke-width="1.5"></path>
        <path d="M1609.96 382.16L1582.59 558.54" stroke="hsl(228.5, 77.2%, 51.5%)" stroke-width="1.5"></path>
        <path d="M1582.59 558.54L1582.59 558.54" stroke="hsl(228.5, 77.2%, 51.5%)" stroke-width="1.5"></path>
        <path d="M1582.59 558.54L1574.98 694.84" stroke="hsl(228.5, 77.2%, 51.5%)" stroke-width="1.5"></path>
        <path d="M1574.98 694.84L1574.98 694.84" stroke="hsl(228.5, 77.2%, 51.5%)" stroke-width="1.5"></path>
        <path d="M1574.98 694.84L1263.93 678.35" stroke="hsl(228.5, 77.2%, 51.5%)" stroke-width="1.5"></path>
        <circle r="25" cx="-89.83" cy="555.55" fill="url(#SvgjsRadialGradient1001)"></circle>
        <circle r="25" cx="393.35" cy="671.65" fill="url(#SvgjsRadialGradient1001)"></circle>
        <circle r="25" cx="640.29" cy="542.89" fill="url(#SvgjsRadialGradient1001)"></circle>
        <circle r="25" cx="858.15" cy="655.01" fill="url(#SvgjsRadialGradient1001)"></circle>
        <circle r="25" cx="952.71" cy="505.94" fill="url(#SvgjsRadialGradient1001)"></circle>
        <circle r="25" cx="1280.06" cy="356.91" fill="url(#SvgjsRadialGradient1001)"></circle>
        <circle r="5" cx="-39.52" cy="684.5" fill="#8b9ad9"></circle>
        <circle r="5" cx="106.72" cy="495.59" fill="#8b9ad9"></circle>
        <circle r="5" cx="80.89" cy="666.04" fill="#8b9ad9"></circle>
        <circle r="5" cx="260.6" cy="529.76" fill="#8b9ad9"></circle>
        <circle r="5" cx="243.28" cy="638.49" fill="#8b9ad9"></circle>
        <circle r="5" cx="390.01" cy="507.44" fill="#8b9ad9"></circle>
        <circle r="5" cx="529.9" cy="698.44" fill="#8b9ad9"></circle>
        <circle r="5" cx="661.43" cy="388.79" fill="#8b9ad9"></circle>
        <circle r="5" cx="698.96" cy="646.06" fill="#8b9ad9"></circle>
        <circle r="5" cx="850.01" cy="398.72" fill="#8b9ad9"></circle>
        <circle r="5" cx="788.21" cy="539.55" fill="#8b9ad9"></circle>
        <circle r="5" cx="1000.9" cy="229.56" fill="#8b9ad9"></circle>
        <circle r="5" cx="1011.71" cy="408.55" fill="#8b9ad9"></circle>
        <circle r="5" cx="968.32" cy="667.03" fill="#8b9ad9"></circle>
        <circle r="5" cx="1109.53" cy="229.29" fill="#8b9ad9"></circle>
        <circle r="5" cx="1114.46" cy="383.63" fill="#8b9ad9"></circle>
        <circle r="5" cx="1127.63" cy="664.45" fill="#8b9ad9"></circle>
        <circle r="5" cx="1261.6" cy="-61.1" fill="#8b9ad9"></circle>
        <circle r="5" cx="1242.48" cy="79.09" fill="#8b9ad9"></circle>
        <circle r="5" cx="1237.92" cy="231.9" fill="#8b9ad9"></circle>
        <circle r="5" cx="1240.88" cy="545.22" fill="#8b9ad9"></circle>
        <circle r="5" cx="1263.93" cy="678.35" fill="#8b9ad9"></circle>
        <circle r="5" cx="1444.63" cy="-65.15" fill="#8b9ad9"></circle>
        <circle r="5" cx="1449.05" cy="61.17" fill="#8b9ad9"></circle>
        <circle r="5" cx="1426.85" cy="194.29" fill="#8b9ad9"></circle>
        <circle r="5" cx="1437.58" cy="347.04" fill="#8b9ad9"></circle>
        <circle r="5" cx="1451.31" cy="529.86" fill="#8b9ad9"></circle>
        <circle r="5" cx="1581.93" cy="-55.92" fill="#8b9ad9"></circle>
        <circle r="5" cx="1575.53" cy="89.78" fill="#8b9ad9"></circle>
        <circle r="5" cx="1579.65" cy="198.89" fill="#8b9ad9"></circle>
        <circle r="5" cx="1609.96" cy="382.16" fill="#8b9ad9"></circle>
        <circle r="5" cx="1582.59" cy="558.54" fill="#8b9ad9"></circle>
        <circle r="5" cx="1574.98" cy="694.84" fill="#8b9ad9"></circle>
    </g>
    <defs>
        <mask id="SvgjsMask1000">
            <rect width="1440" height="560" fill="#ffffff"></rect>
        </mask>
        <radialGradient id="SvgjsRadialGradient1001">
            <stop stop-color="#ffffff" offset="0.1"></stop>
            <stop stop-color="rgba(23, 53, 179, 1)" offset="0.2"></stop>
            <stop stop-color="rgba(23, 53, 179, 0)" offset="1"></stop>
        </radialGradient>
    </defs>
</svg>