<svg xmlns="http://www.w3.org/2000/svg" xmlns:xlink="http://www.w3.org/1999/xlink" viewBox="0,0,256,256" width="30px" height="30px" fill-rule="nonzero"><g fill="#00327c" fill-rule="nonzero" stroke="#ffffffbb" stroke-width="1" stroke-linecap="butt" stroke-linejoin="miter" stroke-miterlimit="10" stroke-dasharray="" stroke-dashoffset="0" font-family="none" font-weight="none" font-size="none" text-anchor="none" style="mix-blend-mode: normal"><g transform="scale(9.84615,9.84615)"><path d="M8.5,2c-0.82812,0 -1.5,0.67188 -1.5,1.5v12.5l-2.02344,-2.76953c-0.60156,-0.92578 -1.77344,-1.23828 -2.63281,-0.70703c-0.85156,0.54297 -1.06641,1.72266 -0.47266,2.64844c0,0 3.26563,4.94141 4.66016,7.05859c1.39063,2.11328 3.64453,3.76953 7.85938,3.76953c6.98438,0 7.60938,-5.39062 7.60938,-7v-6.5c0,-0.82812 -0.67187,-1.5 -1.5,-1.5c-0.82812,0 -1.5,0.67188 -1.5,1.5c0,0.27734 -0.22266,0.5 -0.5,0.5c-0.27734,0 -0.5,-0.22266 -0.5,-0.5v-1c0,-0.82812 -0.67187,-1.5 -1.5,-1.5c-0.82812,0 -1.5,0.67188 -1.5,1.5c0,0.27344 -0.22656,0.5 -0.5,0.5c-0.27344,0 -0.5,-0.22656 -0.5,-0.5c0,-0.82812 -0.67187,-1.5 -1.5,-1.5c-0.82812,0 -1.5,0.67188 -1.5,1.5c0,0.27344 -0.22656,0.5 -0.5,0.5c-0.27344,0 -0.5,-0.22656 -0.5,-0.5v-8c0,-0.82812 -0.67187,-1.5 -1.5,-1.5z"></path></g></g></svg>