<svg width="40" height="40" viewBox="0 0 40 40" fill="none" xmlns="http://www.w3.org/2000/svg">
<path d="M31.8803 15.2127C31.9302 15.6663 32.5303 26.2025 30.4807 31.3445C30.3307 31.7479 29.9308 32 29.5308 32C29.3809 32 29.2808 31.9497 29.1309 31.8991C28.581 31.6976 28.331 31.0421 28.5311 30.5379C30.3307 26.1015 29.8307 16.4729 29.7808 15.4647C29.6807 15.011 29.3809 14.2044 28.6312 14.2044C28.0314 14.2044 27.5314 14.7086 27.5314 15.3134V17.4307C27.5314 18.0356 27.0816 18.4896 26.4815 18.4896C25.8818 18.4896 25.4316 18.0359 25.4316 17.4307V15.3134V14.9604V14.7589V13.3473C25.4316 12.7425 24.9316 12.2383 24.3319 12.2383C23.7321 12.2383 23.2321 12.7425 23.2321 13.3473V17.4306C23.2321 18.0355 22.7823 18.4895 22.1822 18.4895C21.5824 18.4895 21.1323 18.0358 21.1323 17.4306L21.133 14.4564V11.9358C21.133 11.331 20.6329 10.8267 20.0332 10.8267C19.4335 10.8267 18.9335 11.331 18.9335 11.9358V17.0779C18.9335 17.6828 18.4837 18.1368 17.8836 18.1368C17.2838 18.1368 16.8336 17.6831 16.8336 17.0779V4.92863C16.8336 4.32379 16.3336 3.81957 15.7339 3.81957C15.1342 3.81957 14.6342 4.32383 14.6342 4.92863V22.4216C14.6342 23.0264 14.1844 23.4804 13.5842 23.4804C13.2342 23.4804 12.8844 23.2789 12.6846 23.0268L7.98567 18.8426C7.73566 18.6411 7.48565 18.5402 7.23599 18.5402C6.98598 18.5402 6.73597 18.6914 6.58604 18.8932C6.33603 19.1957 6.53618 20.0023 7.08606 20.7081C7.28586 20.9602 10.8352 25.4971 14.3845 28.3202C14.8343 28.6733 14.9344 29.3284 14.5344 29.782C14.3346 30.0341 14.0344 30.1853 13.7345 30.1853C13.4845 30.1853 13.2847 30.135 13.0846 29.9332C9.28559 26.9083 5.58639 22.1699 5.43642 21.9681C4.28679 20.4054 4.08666 18.6915 4.98661 17.5823C5.48663 16.9269 6.28621 16.5235 7.08611 16.4733C7.93586 16.423 8.73571 16.7254 9.43554 17.3302L12.5849 20.1532V5.08001C12.5849 3.31541 14.0344 1.85364 15.7841 1.85364C17.5339 1.85364 18.9833 3.31541 18.9833 5.08001V9.01215C19.3334 8.86094 19.6832 8.81065 20.0831 8.81065C21.3328 8.81065 22.4325 9.5164 22.9326 10.5753C23.3824 10.3231 23.8824 10.2222 24.3821 10.2222C25.7817 10.2222 27.0314 11.1801 27.4313 12.4404C27.8313 12.2892 28.2811 12.1883 28.7309 12.1883C30.2805 12.1883 31.4803 13.3477 31.9302 15.2132C31.8803 15.1123 31.8803 15.1625 31.8803 15.2132L31.8803 15.2127ZM6.08652 7.44906C6.23646 7.54998 6.43661 7.60027 6.58655 7.60027C6.93663 7.60027 7.33622 7.39877 7.53641 7.04572L9.23591 3.81935L9.28578 4.07148C9.43571 4.52511 9.83566 4.82752 10.2854 4.82752C10.3855 4.82752 10.4852 4.82752 10.5853 4.77723C11.1352 4.62602 11.4351 4.0212 11.2851 3.46661L10.4852 0.744542C10.3353 0.189992 9.73557 -0.112417 9.18565 0.0387918L6.58618 0.845465C6.03629 0.996674 5.73643 1.6015 5.88637 2.15609C6.0363 2.71064 6.63604 3.01305 7.18597 2.86184L7.43598 2.81155L5.68622 6.08815C5.38669 6.49114 5.5865 7.14668 6.08652 7.44906ZM5.43657 14.406C5.28664 13.8515 4.6869 13.549 4.13697 13.7003L3.88696 13.7505L5.63672 10.4739C5.88673 9.96968 5.7368 9.31455 5.18691 9.0624C4.68689 8.81027 4.03727 8.96148 3.78724 9.51603L2.08774 12.7424L2.03788 12.4903C1.88794 11.9357 1.2882 11.6333 0.73828 11.7845C0.188394 11.9357 -0.111472 12.5406 0.0384656 13.0951L0.838355 15.8172C0.938429 16.0693 1.08837 16.3215 1.33838 16.422C1.48831 16.523 1.63825 16.523 1.8384 16.523C1.93848 16.523 2.0382 16.523 2.13827 16.4727L4.73774 15.666C5.28657 15.5654 5.58651 14.9605 5.43657 14.406Z" fill="#00327c"/>
</svg>
